<?xml version="1.0" standalone="no"?><!DOCTYPE svg PUBLIC "-//W3C//DTD SVG 1.1//EN" "http://www.w3.org/Graphics/SVG/1.1/DTD/svg11.dtd"><svg t="1664118952922" class="icon" viewBox="0 0 1024 1024" version="1.1" xmlns="http://www.w3.org/2000/svg" p-id="3572" xmlns:xlink="http://www.w3.org/1999/xlink" width="200" height="200"><path d="M341.333333 725.333333a42.666667 42.666667 0 1 0 0 85.333334 42.666667 42.666667 0 0 0 0-85.333334z m0-256a42.666667 42.666667 0 1 0 0 85.333334 42.666667 42.666667 0 0 0 0-85.333334z m341.333334-384H341.333333a170.666667 170.666667 0 0 0-170.666666 170.666667v512a170.666667 170.666667 0 0 0 170.666666 170.666667h341.333334a170.666667 170.666667 0 0 0 170.666666-170.666667V256a170.666667 170.666667 0 0 0-170.666666-170.666667z m85.333333 682.666667a85.333333 85.333333 0 0 1-85.333333 85.333333H341.333333a85.333333 85.333333 0 0 1-85.333333-85.333333v-109.226667A166.826667 166.826667 0 0 0 341.333333 682.666667h341.333334a166.826667 166.826667 0 0 0 85.333333-23.893334V768z m0-256a85.333333 85.333333 0 0 1-85.333333 85.333333H341.333333a85.333333 85.333333 0 0 1-85.333333-85.333333V402.773333A166.826667 166.826667 0 0 0 341.333333 426.666667h341.333334a166.826667 166.826667 0 0 0 85.333333-23.893334V512z m-85.333333-170.666667H341.333333a85.333333 85.333333 0 1 1 0-170.666666h341.333334a85.333333 85.333333 0 1 1 0 170.666666z" fill="#42526E" p-id="3573"></path></svg>